<svg width="346" height="286" viewBox="0 0 346 286" fill="none" xmlns="http://www.w3.org/2000/svg">
<path d="M117.121 74.12C130.441 74.12 135.361 82.16 136.561 88.4L155.161 82.64C153.241 70.88 142.681 56.12 118.441 56.12L117.961 56.24C94.2013 56.24 72.0013 74.72 72.0013 106.04C72.0013 128.48 86.0413 144.32 108.121 144.32C117.841 144.32 125.521 140.48 129.841 134.72V143H144.121L153.721 97.52H111.481L108.001 113.6H132.841C130.201 121.04 123.721 127.28 111.721 127.28C98.5213 127.28 91.4413 117.92 91.4413 104.96C91.4413 84.32 104.881 74.12 117.121 74.12ZM179.705 106.04C181.625 100.16 185.705 96.08 192.905 96.08C200.585 96.08 203.105 101.36 203.105 105.2V106.04H179.705ZM218.225 117.8C219.425 114.2 219.905 109.88 219.905 107.12C219.905 92.36 209.825 81.56 193.025 81.56C177.185 81.56 161.345 95.12 161.345 117.08C161.345 133.52 173.945 144.8 188.945 144.8C203.585 144.8 211.985 137.24 215.825 129.44L201.665 123.08C199.745 126.92 195.665 129.8 190.505 129.8C182.105 129.8 178.025 124.28 178.025 117.92L218.225 117.8ZM254.609 99.32H266.009L269.489 83.36H257.969L261.689 65.96H245.369L243.569 73.64C242.129 79.76 239.009 83.36 232.289 83.36H229.409L226.049 99.32H236.369L231.569 122.6C231.209 124.4 230.969 126.08 230.969 127.76C230.969 137.48 237.689 143.84 248.849 143.84C253.529 143.84 256.409 142.52 257.129 142.16L260.249 127.76C258.809 128.12 257.249 128.36 255.809 128.36C252.209 128.36 249.689 126.92 249.689 123.2C249.689 122.6 249.809 121.88 249.929 121.16L254.609 99.32ZM76.0911 247H96.1311L83.4111 212.44C95.4111 208.36 104.051 198.16 104.051 184C104.051 171.4 95.5311 161.92 79.2111 161.92H48.6111L30.6111 247H49.5711L56.2911 215.32H65.1711L76.0911 247ZM59.6511 199L64.0911 178.24H74.5311C81.4911 178.24 84.4911 181.6 84.4911 186.76C84.4911 193.84 79.2111 199 70.4511 199H59.6511ZM123.865 210.04C125.785 204.16 129.865 200.08 137.065 200.08C144.745 200.08 147.265 205.36 147.265 209.2V210.04H123.865ZM162.385 221.8C163.585 218.2 164.065 213.88 164.065 211.12C164.065 196.36 153.985 185.56 137.185 185.56C121.345 185.56 105.505 199.12 105.505 221.08C105.505 237.52 118.105 248.8 133.105 248.8C147.745 248.8 156.145 241.24 159.985 233.44L145.825 227.08C143.905 230.92 139.825 233.8 134.665 233.8C126.265 233.8 122.185 228.28 122.185 221.92L162.385 221.8ZM202.579 202.48C208.579 202.48 212.779 206.44 212.779 213.88C212.779 226.24 205.819 232.24 199.219 232.24C193.219 232.24 188.779 228.04 188.779 220.36C188.779 211.72 193.579 202.48 202.579 202.48ZM219.019 187.36L217.819 193.72C216.619 191.44 212.299 185.92 200.899 185.92C184.099 185.92 170.779 200.44 170.779 221.2C170.779 236.32 179.779 247.96 194.179 247.96C202.339 247.96 206.899 243.52 209.179 239.92C208.939 241.48 208.819 243.16 208.819 244.84C208.819 245.32 208.819 246.28 208.939 247H225.499C225.379 245.92 225.379 245.08 225.379 244.72C225.379 241.72 225.739 238.12 226.459 235L236.659 187.36H219.019ZM257.648 247L276.128 160.12H257.888L239.408 247H257.648ZM284.904 247.84C292.464 247.84 298.464 241.6 298.464 234.52C298.464 228.52 294.264 223.6 287.544 223.6C279.864 223.6 273.744 229.72 273.744 236.8C273.744 242.68 278.064 247.84 284.904 247.84Z" fill="#DAFFED"/>
<path d="M30 42V23L48.5 29.5L30 42Z" fill="#FF715B"/>
<path d="M313 103V84L340 89.5L313 103Z" fill="#A2AEBB"/>
<path d="M65 122V103L83.5 109.5L65 122Z" fill="#FF715B"/>
<path d="M313 254V235L331.5 241.5L313 254Z" fill="#FF715B"/>
<path d="M3 178V151L18 160.237L3 178Z" fill="#3DDC97"/>
<path d="M323.983 10.1383L306.401 30.6293L301.032 13.8516L323.983 10.1383Z" fill="#FF715B"/>
<path d="M19.2131 40.2396C18.1924 39.8172 17.0227 40.3022 16.6003 41.3228C16.1779 42.3434 16.6629 43.5132 17.6835 43.9356L19.2131 40.2396ZM23.2571 42.6123L24.043 44.4514L23.2571 42.6123ZM26.2451 38.3666L28.1474 38.984L28.1532 38.9661L28.1587 38.9481L26.2451 38.3666ZM28.9546 34.2537L28.056 32.467L28.9546 34.2537ZM34.0419 34.6455L34.7773 32.7856L34.7693 32.7825L34.0419 34.6455ZM39.0364 35.0816L38.1842 33.2723L39.0364 35.0816ZM43.7917 31.5066C44.1254 30.4536 43.5423 29.3295 42.4894 28.9958C41.4364 28.6621 40.3123 29.2452 39.9786 30.2981L43.7917 31.5066ZM18.4483 42.0876C17.6835 43.9356 17.6839 43.9357 17.6843 43.9359C17.6844 43.936 17.6848 43.9361 17.6851 43.9363C17.6857 43.9365 17.6864 43.9368 17.687 43.937C17.6884 43.9376 17.69 43.9382 17.6917 43.939C17.6952 43.9404 17.6995 43.9421 17.7045 43.9442C17.7145 43.9482 17.7274 43.9535 17.7433 43.9598C17.7749 43.9723 17.8179 43.9892 17.8713 44.0096C17.978 44.0502 18.1269 44.105 18.309 44.1672C18.6705 44.2905 19.1775 44.4475 19.7552 44.5791C20.7753 44.8115 22.5376 45.0947 24.043 44.4514L22.4713 40.7731C22.2345 40.8743 21.5924 40.8951 20.6436 40.679C20.2369 40.5864 19.8683 40.4727 19.6003 40.3813C19.4678 40.3361 19.3635 40.2976 19.2956 40.2717C19.2617 40.2588 19.2372 40.2492 19.2231 40.2436C19.216 40.2407 19.2115 40.2389 19.2098 40.2382C19.209 40.2379 19.2088 40.2378 19.2093 40.238C19.2096 40.2381 19.21 40.2383 19.2107 40.2386C19.211 40.2387 19.2113 40.2389 19.2117 40.239C19.2119 40.2391 19.2123 40.2392 19.2124 40.2393C19.2127 40.2394 19.2131 40.2396 18.4483 42.0876ZM24.043 44.4514C24.9038 44.0836 25.563 43.4678 26.0406 42.9023C26.5288 42.3241 26.9193 41.6881 27.2163 41.1318C27.5167 40.5692 27.7451 40.0431 27.8983 39.6597C27.9755 39.4664 28.0352 39.3055 28.0767 39.1894C28.0975 39.1312 28.1138 39.084 28.1256 39.0493C28.1315 39.032 28.1363 39.0178 28.1399 39.0068C28.1417 39.0013 28.1433 38.9967 28.1445 38.9929C28.1451 38.991 28.1457 38.9893 28.1462 38.9878C28.1464 38.9871 28.1466 38.9864 28.1468 38.9858C28.1469 38.9855 28.1471 38.985 28.1471 38.9849C28.1473 38.9844 28.1474 38.984 26.2451 38.3666C24.3428 37.7491 24.3429 37.7487 24.3431 37.7483C24.3431 37.7482 24.3432 37.7479 24.3433 37.7477C24.3434 37.7472 24.3435 37.7469 24.3436 37.7465C24.3438 37.7459 24.344 37.7455 24.3441 37.7452C24.3442 37.7447 24.3441 37.745 24.3438 37.7461C24.3431 37.7483 24.3413 37.7535 24.3386 37.7616C24.333 37.7778 24.3235 37.8055 24.3101 37.8431C24.2831 37.9186 24.2407 38.0332 24.1838 38.1756C24.0688 38.4635 23.9007 38.849 23.6877 39.248C23.4713 39.6533 23.2316 40.0289 22.9845 40.3216C22.7265 40.6271 22.5449 40.7417 22.4713 40.7731L24.043 44.4514ZM26.2451 38.3666C28.1587 38.9481 28.1586 38.9484 28.1585 38.9488C28.1584 38.9489 28.1583 38.9492 28.1583 38.9495C28.1581 38.9499 28.158 38.9502 28.1579 38.9506C28.1577 38.9512 28.1576 38.9517 28.1575 38.9519C28.1574 38.9525 28.1574 38.9523 28.1577 38.9513C28.1583 38.9495 28.1598 38.9447 28.1621 38.9373C28.1669 38.9223 28.1752 38.8966 28.187 38.8614C28.2107 38.7908 28.2481 38.6832 28.2984 38.5491C28.4003 38.2779 28.5499 37.9132 28.741 37.5327C29.1871 36.6445 29.6205 36.1575 29.8533 36.0405L28.056 32.467C26.5657 33.2165 25.6443 34.786 25.1665 35.7375C24.8955 36.2769 24.6908 36.7779 24.5539 37.1425C24.4849 37.3263 24.4317 37.4791 24.3947 37.5894C24.3761 37.6447 24.3616 37.6895 24.3511 37.7225C24.3458 37.739 24.3415 37.7526 24.3383 37.7631C24.3366 37.7683 24.3353 37.7728 24.3341 37.7765C24.3336 37.7783 24.3331 37.7799 24.3326 37.7814C24.3324 37.7821 24.3322 37.7827 24.332 37.7834C24.3319 37.7837 24.3318 37.7841 24.3318 37.7842C24.3316 37.7847 24.3315 37.7851 26.2451 38.3666ZM29.8533 36.0405C29.9247 36.0045 30.1276 35.9399 30.5215 35.9362C30.8988 35.9326 31.3331 35.9856 31.7746 36.074C32.2093 36.1611 32.6053 36.2733 32.8943 36.3648C33.0372 36.41 33.15 36.449 33.2237 36.4753C33.2604 36.4884 33.2872 36.4983 33.3028 36.5042C33.3105 36.5071 33.3155 36.509 33.3175 36.5097C33.3185 36.5101 33.3188 36.5102 33.3183 36.51C33.3181 36.5099 33.3176 36.5098 33.317 36.5095C33.3167 36.5094 33.3163 36.5093 33.3159 36.5091C33.3157 36.509 33.3154 36.5089 33.3152 36.5088C33.3149 36.5087 33.3145 36.5086 34.0419 34.6455C34.7693 32.7825 34.7689 32.7823 34.7685 32.7822C34.7684 32.7821 34.7679 32.782 34.7676 32.7818C34.767 32.7816 34.7664 32.7813 34.7656 32.7811C34.7642 32.7805 34.7626 32.7799 34.7607 32.7792C34.757 32.7777 34.7525 32.776 34.7473 32.774C34.7367 32.7699 34.7229 32.7647 34.706 32.7584C34.6724 32.7458 34.6264 32.7288 34.5693 32.7084C34.4554 32.6678 34.2963 32.613 34.1017 32.5514C33.7157 32.4291 33.1746 32.2751 32.5605 32.152C31.9533 32.0303 31.2273 31.9293 30.4834 31.9364C29.7561 31.9433 28.8769 32.0541 28.056 32.467L29.8533 36.0405ZM34.0419 34.6455C33.3065 36.5054 33.3069 36.5056 33.3073 36.5057C33.3075 36.5058 33.3079 36.506 33.3082 36.5061C33.3088 36.5063 33.3094 36.5066 33.3101 36.5068C33.3115 36.5074 33.3132 36.508 33.315 36.5087C33.3186 36.5102 33.323 36.5119 33.3282 36.5139C33.3385 36.5179 33.352 36.5231 33.3685 36.5293C33.4014 36.5418 33.4463 36.5586 33.502 36.5788C33.6133 36.6192 33.7687 36.6735 33.9588 36.7348C34.336 36.8564 34.8648 37.0103 35.4658 37.1353C36.5264 37.356 38.3572 37.6122 39.8885 36.891L38.1842 33.2723C37.9395 33.3875 37.2731 33.4257 36.2805 33.2192C35.8549 33.1306 35.468 33.0186 35.1863 32.9278C35.0469 32.8829 34.937 32.8443 34.8653 32.8183C34.8296 32.8054 34.8036 32.7956 34.7885 32.7899C34.781 32.787 34.7762 32.7852 34.7743 32.7844C34.7733 32.7841 34.7731 32.784 34.7736 32.7842C34.7738 32.7843 34.7742 32.7844 34.7749 32.7847C34.7752 32.7848 34.7755 32.7849 34.7759 32.7851C34.7761 32.7852 34.7765 32.7853 34.7766 32.7854C34.7769 32.7855 34.7773 32.7856 34.0419 34.6455ZM39.8885 36.891C40.7084 36.5049 41.3344 35.8931 41.7886 35.3351C42.2532 34.7641 42.6246 34.1417 42.9072 33.5979C43.193 33.0482 43.4099 32.5362 43.5553 32.1634C43.6286 31.9755 43.6852 31.8191 43.7245 31.7063C43.7442 31.6498 43.7597 31.604 43.7709 31.5702C43.7765 31.5534 43.7811 31.5395 43.7845 31.5289C43.7863 31.5235 43.7877 31.519 43.7889 31.5153C43.7895 31.5134 43.79 31.5118 43.7905 31.5103C43.7907 31.5096 43.7909 31.5089 43.7911 31.5083C43.7912 31.508 43.7914 31.5076 43.7914 31.5074C43.7916 31.507 43.7917 31.5066 41.8851 30.9024C39.9786 30.2981 39.9787 30.2978 39.9788 30.2974C39.9789 30.2973 39.979 30.2969 39.979 30.2967C39.9792 30.2963 39.9793 30.2959 39.9794 30.2956C39.9796 30.295 39.9797 30.2945 39.9798 30.2943C39.98 30.2938 39.9799 30.294 39.9796 30.295C39.9789 30.297 39.9773 30.302 39.9747 30.3098C39.9696 30.3253 39.9606 30.352 39.9479 30.3883C39.9225 30.4612 39.8825 30.572 39.8287 30.71C39.7199 30.9889 39.5606 31.3635 39.358 31.7532C39.1524 32.1488 38.9236 32.5185 38.6861 32.8102C38.4382 33.1149 38.2602 33.2365 38.1842 33.2723L39.8885 36.891Z" fill="#5D58F7"/>
<path d="M292.861 28.6343C291.84 28.2119 290.671 28.6969 290.248 29.7175C289.826 30.7382 290.311 31.9079 291.331 32.3303L292.861 28.6343ZM296.905 31.007L297.691 32.8461L296.905 31.007ZM299.893 26.7613L301.795 27.3788L301.801 27.3608L301.807 27.3428L299.893 26.7613ZM302.603 22.6484L301.704 20.8617L302.603 22.6484ZM307.69 23.0402L308.425 21.1803L308.417 21.1772L307.69 23.0402ZM312.684 23.4763L311.832 21.667L312.684 23.4763ZM317.44 19.9013C317.773 18.8483 317.19 17.7242 316.137 17.3905C315.084 17.0568 313.96 17.6399 313.627 18.6928L317.44 19.9013ZM292.096 30.4823C291.331 32.3303 291.332 32.3305 291.332 32.3306C291.332 32.3307 291.333 32.3309 291.333 32.331C291.334 32.3312 291.334 32.3315 291.335 32.3318C291.336 32.3323 291.338 32.333 291.34 32.3337C291.343 32.3351 291.347 32.3369 291.352 32.3389C291.362 32.3429 291.375 32.3482 291.391 32.3545C291.423 32.3671 291.466 32.384 291.519 32.4043C291.626 32.4449 291.775 32.4997 291.957 32.5619C292.318 32.6852 292.825 32.8423 293.403 32.9739C294.423 33.2062 296.186 33.4894 297.691 32.8461L296.119 29.1679C295.882 29.269 295.24 29.2899 294.292 29.0737C293.885 28.9811 293.516 28.8675 293.248 28.776C293.116 28.7308 293.011 28.6923 292.944 28.6665C292.91 28.6536 292.885 28.6439 292.871 28.6383C292.864 28.6355 292.86 28.6336 292.858 28.633C292.857 28.6326 292.857 28.6325 292.857 28.6328C292.858 28.6329 292.858 28.633 292.859 28.6333C292.859 28.6334 292.859 28.6336 292.86 28.6337C292.86 28.6338 292.86 28.634 292.86 28.634C292.861 28.6341 292.861 28.6343 292.096 30.4823ZM297.691 32.8461C298.552 32.4783 299.211 31.8625 299.689 31.297C300.177 30.7188 300.567 30.0828 300.864 29.5265C301.165 28.9639 301.393 28.4378 301.546 28.0544C301.624 27.8611 301.683 27.7002 301.725 27.5841C301.745 27.5259 301.762 27.4787 301.774 27.4441C301.779 27.4267 301.784 27.4125 301.788 27.4015C301.79 27.3961 301.791 27.3914 301.792 27.3876C301.793 27.3857 301.794 27.384 301.794 27.3825C301.794 27.3818 301.795 27.3811 301.795 27.3805C301.795 27.3802 301.795 27.3797 301.795 27.3796C301.795 27.3792 301.795 27.3788 299.893 26.7613C297.991 26.1438 297.991 26.1434 297.991 26.143C297.991 26.1429 297.991 26.1426 297.991 26.1424C297.991 26.142 297.992 26.1416 297.992 26.1413C297.992 26.1406 297.992 26.1402 297.992 26.1399C297.992 26.1395 297.992 26.1398 297.992 26.1408C297.991 26.143 297.989 26.1482 297.987 26.1563C297.981 26.1725 297.971 26.2002 297.958 26.2378C297.931 26.3133 297.889 26.4279 297.832 26.5703C297.717 26.8582 297.549 27.2438 297.336 27.6427C297.119 28.048 296.88 28.4236 296.632 28.7163C296.374 29.0218 296.193 29.1364 296.119 29.1679L297.691 32.8461ZM299.893 26.7613C301.807 27.3428 301.807 27.3431 301.806 27.3435C301.806 27.3436 301.806 27.344 301.806 27.3442C301.806 27.3446 301.806 27.345 301.806 27.3453C301.806 27.3459 301.806 27.3464 301.805 27.3466C301.805 27.3472 301.805 27.347 301.806 27.346C301.806 27.3442 301.808 27.3394 301.81 27.332C301.815 27.317 301.823 27.2913 301.835 27.2561C301.859 27.1855 301.896 27.0779 301.946 26.9438C302.048 26.6726 302.198 26.3079 302.389 25.9275C302.835 25.0392 303.269 24.5522 303.501 24.4352L301.704 20.8617C300.214 21.6113 299.292 23.1807 298.814 24.1322C298.544 24.6716 298.339 25.1727 298.202 25.5372C298.133 25.721 298.08 25.8738 298.043 25.9841C298.024 26.0394 298.01 26.0842 297.999 26.1172C297.994 26.1338 297.99 26.1473 297.986 26.1578C297.985 26.1631 297.983 26.1675 297.982 26.1712C297.982 26.173 297.981 26.1747 297.981 26.1761C297.98 26.1768 297.98 26.1775 297.98 26.1781C297.98 26.1784 297.98 26.1788 297.98 26.179C297.98 26.1794 297.979 26.1798 299.893 26.7613ZM303.501 24.4352C303.573 24.3992 303.776 24.3346 304.17 24.3309C304.547 24.3273 304.981 24.3803 305.423 24.4687C305.857 24.5559 306.253 24.668 306.542 24.7595C306.685 24.8048 306.798 24.8437 306.872 24.87C306.908 24.8832 306.935 24.893 306.951 24.8989C306.959 24.9018 306.963 24.9037 306.966 24.9045C306.967 24.9048 306.967 24.9049 306.966 24.9047C306.966 24.9047 306.966 24.9045 306.965 24.9042C306.965 24.9041 306.964 24.904 306.964 24.9038C306.964 24.9037 306.963 24.9036 306.963 24.9036C306.963 24.9034 306.963 24.9033 307.69 23.0402C308.417 21.1772 308.417 21.1771 308.416 21.1769C308.416 21.1768 308.416 21.1767 308.416 21.1766C308.415 21.1763 308.414 21.1761 308.414 21.1758C308.412 21.1752 308.411 21.1746 308.409 21.1739C308.405 21.1725 308.401 21.1707 308.395 21.1687C308.385 21.1646 308.371 21.1594 308.354 21.1531C308.32 21.1405 308.274 21.1235 308.217 21.1032C308.103 21.0625 307.944 21.0077 307.75 20.9461C307.364 20.8239 306.823 20.6698 306.208 20.5467C305.601 20.425 304.875 20.324 304.131 20.3311C303.404 20.338 302.525 20.4488 301.704 20.8617L303.501 24.4352ZM307.69 23.0402C306.955 24.9001 306.955 24.9003 306.955 24.9005C306.955 24.9005 306.956 24.9007 306.956 24.9008C306.957 24.901 306.957 24.9013 306.958 24.9016C306.96 24.9021 306.961 24.9027 306.963 24.9035C306.967 24.9049 306.971 24.9066 306.976 24.9086C306.987 24.9126 307 24.9178 307.016 24.9241C307.049 24.9366 307.094 24.9533 307.15 24.9735C307.261 25.0139 307.417 25.0682 307.607 25.1295C307.984 25.2511 308.513 25.405 309.114 25.53C310.174 25.7507 312.005 26.0069 313.537 25.2857L311.832 21.667C311.587 21.7822 310.921 21.8204 309.928 21.6139C309.503 21.5253 309.116 21.4134 308.834 21.3225C308.695 21.2776 308.585 21.239 308.513 21.213C308.478 21.2001 308.452 21.1903 308.436 21.1846C308.429 21.1817 308.424 21.1799 308.422 21.1791C308.421 21.1788 308.421 21.1787 308.422 21.1789C308.422 21.179 308.422 21.1791 308.423 21.1794C308.423 21.1795 308.424 21.1797 308.424 21.1798C308.424 21.1799 308.424 21.18 308.425 21.1801C308.425 21.1802 308.425 21.1804 307.69 23.0402ZM313.537 25.2857C314.356 24.8996 314.982 24.2878 315.437 23.7298C315.901 23.1588 316.273 22.5364 316.555 21.9926C316.841 21.443 317.058 20.9309 317.203 20.5581C317.277 20.3702 317.333 20.2139 317.373 20.101C317.392 20.0445 317.408 19.9987 317.419 19.965C317.425 19.9481 317.429 19.9342 317.433 19.9236C317.434 19.9182 317.436 19.9137 317.437 19.91C317.437 19.9081 317.438 19.9065 317.438 19.905C317.439 19.9043 317.439 19.9036 317.439 19.903C317.439 19.9027 317.439 19.9023 317.439 19.9021C317.44 19.9017 317.44 19.9013 315.533 19.2971C313.627 18.6928 313.627 18.6925 313.627 18.6921C313.627 18.692 313.627 18.6916 313.627 18.6914C313.627 18.691 313.627 18.6907 313.627 18.6903C313.628 18.6897 313.628 18.6893 313.628 18.689C313.628 18.6885 313.628 18.6888 313.628 18.6898C313.627 18.6918 313.625 18.6967 313.623 18.7045C313.618 18.7201 313.609 18.7467 313.596 18.783C313.57 18.8559 313.53 18.9667 313.477 19.1047C313.368 19.3837 313.209 19.7583 313.006 20.1479C312.8 20.5435 312.572 20.9132 312.334 21.2049C312.086 21.5096 311.908 21.6312 311.832 21.667L313.537 25.2857Z" fill="#3DDC97"/>
<path d="M318.861 93.6343C317.84 93.2119 316.671 93.6969 316.248 94.7175C315.826 95.7382 316.311 96.9079 317.331 97.3303L318.861 93.6343ZM322.905 96.007L323.691 97.8462L322.905 96.007ZM325.893 91.7613L327.795 92.3788L327.801 92.3608L327.807 92.3428L325.893 91.7613ZM328.603 87.6485L327.704 85.8617L328.603 87.6485ZM333.69 88.0403L334.425 86.1803L334.417 86.1772L333.69 88.0403ZM338.684 88.4764L337.832 86.667L338.684 88.4764ZM343.44 84.9013C343.773 83.8484 343.19 82.7242 342.137 82.3905C341.084 82.0568 339.96 82.6399 339.627 83.6929L343.44 84.9013ZM318.096 95.4823C317.331 97.3303 317.332 97.3305 317.332 97.3306C317.332 97.3307 317.333 97.3309 317.333 97.331C317.334 97.3312 317.334 97.3315 317.335 97.3318C317.336 97.3323 317.338 97.333 317.34 97.3337C317.343 97.3351 317.347 97.3369 317.352 97.3389C317.362 97.343 317.375 97.3482 317.391 97.3545C317.423 97.3671 317.466 97.384 317.519 97.4043C317.626 97.445 317.775 97.4998 317.957 97.5619C318.318 97.6852 318.825 97.8423 319.403 97.9739C320.423 98.2062 322.186 98.4894 323.691 97.8462L322.119 94.1679C321.882 94.269 321.24 94.2899 320.292 94.0738C319.885 93.9811 319.516 93.8675 319.248 93.7761C319.116 93.7309 319.011 93.6923 318.944 93.6665C318.91 93.6536 318.885 93.6439 318.871 93.6383C318.864 93.6355 318.86 93.6337 318.858 93.633C318.857 93.6326 318.857 93.6325 318.857 93.6328C318.858 93.6329 318.858 93.6331 318.859 93.6333C318.859 93.6334 318.859 93.6336 318.86 93.6338C318.86 93.6338 318.86 93.634 318.86 93.634C318.861 93.6342 318.861 93.6343 318.096 95.4823ZM323.691 97.8462C324.552 97.4783 325.211 96.8625 325.689 96.2971C326.177 95.7188 326.567 95.0829 326.864 94.5266C327.165 93.9639 327.393 93.4378 327.546 93.0544C327.624 92.8612 327.683 92.7002 327.725 92.5841C327.745 92.5259 327.762 92.4787 327.774 92.4441C327.779 92.4267 327.784 92.4125 327.788 92.4016C327.79 92.3961 327.791 92.3914 327.792 92.3876C327.793 92.3857 327.794 92.384 327.794 92.3826C327.794 92.3818 327.795 92.3811 327.795 92.3805C327.795 92.3802 327.795 92.3797 327.795 92.3796C327.795 92.3792 327.795 92.3788 325.893 91.7613C323.991 91.1438 323.991 91.1434 323.991 91.1431C323.991 91.143 323.991 91.1426 323.991 91.1424C323.991 91.142 323.992 91.1416 323.992 91.1413C323.992 91.1406 323.992 91.1402 323.992 91.14C323.992 91.1395 323.992 91.1398 323.992 91.1408C323.991 91.143 323.989 91.1482 323.987 91.1563C323.981 91.1725 323.971 91.2002 323.958 91.2378C323.931 91.3134 323.889 91.4279 323.832 91.5703C323.717 91.8582 323.549 92.2438 323.336 92.6428C323.119 93.0481 322.88 93.4236 322.632 93.7163C322.374 94.0218 322.193 94.1364 322.119 94.1679L323.691 97.8462ZM325.893 91.7613C327.807 92.3428 327.807 92.3432 327.806 92.3435C327.806 92.3436 327.806 92.344 327.806 92.3442C327.806 92.3446 327.806 92.345 327.806 92.3453C327.806 92.3459 327.806 92.3464 327.805 92.3467C327.805 92.3472 327.805 92.347 327.806 92.3461C327.806 92.3442 327.808 92.3395 327.81 92.332C327.815 92.317 327.823 92.2913 327.835 92.2561C327.859 92.1855 327.896 92.0779 327.946 91.9438C328.048 91.6726 328.198 91.3079 328.389 90.9275C328.835 90.0392 329.269 89.5523 329.501 89.4352L327.704 85.8617C326.214 86.6113 325.292 88.1807 324.814 89.1322C324.544 89.6717 324.339 90.1727 324.202 90.5372C324.133 90.721 324.08 90.8738 324.043 90.9841C324.024 91.0394 324.01 91.0842 323.999 91.1173C323.994 91.1338 323.99 91.1474 323.986 91.1578C323.985 91.1631 323.983 91.1675 323.982 91.1712C323.982 91.173 323.981 91.1747 323.981 91.1761C323.98 91.1768 323.98 91.1775 323.98 91.1781C323.98 91.1784 323.98 91.1788 323.98 91.179C323.98 91.1794 323.979 91.1798 325.893 91.7613ZM329.501 89.4352C329.573 89.3993 329.776 89.3347 330.17 89.3309C330.547 89.3273 330.981 89.3803 331.423 89.4688C331.857 89.5559 332.253 89.668 332.542 89.7595C332.685 89.8048 332.798 89.8437 332.872 89.87C332.908 89.8832 332.935 89.8931 332.951 89.8989C332.959 89.9018 332.963 89.9037 332.966 89.9045C332.967 89.9049 332.967 89.905 332.966 89.9048C332.966 89.9047 332.966 89.9045 332.965 89.9043C332.965 89.9041 332.964 89.904 332.964 89.9038C332.964 89.9038 332.963 89.9036 332.963 89.9036C332.963 89.9034 332.963 89.9033 333.69 88.0403C334.417 86.1772 334.417 86.1771 334.416 86.1769C334.416 86.1769 334.416 86.1767 334.416 86.1766C334.415 86.1763 334.414 86.1761 334.414 86.1758C334.412 86.1752 334.411 86.1746 334.409 86.1739C334.405 86.1725 334.401 86.1707 334.395 86.1687C334.385 86.1647 334.371 86.1594 334.354 86.1531C334.32 86.1405 334.274 86.1236 334.217 86.1032C334.103 86.0625 333.944 86.0077 333.75 85.9461C333.364 85.8239 332.823 85.6698 332.208 85.5467C331.601 85.4251 330.875 85.324 330.131 85.3311C329.404 85.338 328.525 85.4488 327.704 85.8617L329.501 89.4352ZM333.69 88.0403C332.955 89.9002 332.955 89.9003 332.955 89.9005C332.955 89.9005 332.956 89.9007 332.956 89.9008C332.957 89.901 332.957 89.9013 332.958 89.9016C332.96 89.9021 332.961 89.9028 332.963 89.9035C332.967 89.9049 332.971 89.9066 332.976 89.9086C332.987 89.9126 333 89.9178 333.016 89.9241C333.049 89.9366 333.094 89.9534 333.15 89.9736C333.261 90.0139 333.417 90.0682 333.607 90.1295C333.984 90.2511 334.513 90.405 335.114 90.5301C336.174 90.7507 338.005 91.0069 339.537 90.2857L337.832 86.667C337.587 86.7822 336.921 86.8204 335.928 86.6139C335.503 86.5254 335.116 86.4134 334.834 86.3225C334.695 86.2776 334.585 86.239 334.513 86.2131C334.478 86.2001 334.452 86.1904 334.436 86.1846C334.429 86.1818 334.424 86.1799 334.422 86.1792C334.421 86.1788 334.421 86.1787 334.422 86.1789C334.422 86.179 334.422 86.1792 334.423 86.1794C334.423 86.1795 334.424 86.1797 334.424 86.1798C334.424 86.1799 334.424 86.18 334.425 86.1801C334.425 86.1802 334.425 86.1804 333.69 88.0403ZM339.537 90.2857C340.356 89.8996 340.982 89.2879 341.437 88.7298C341.901 88.1588 342.273 87.5364 342.555 86.9927C342.841 86.443 343.058 85.931 343.203 85.5581C343.277 85.3702 343.333 85.2139 343.373 85.101C343.392 85.0445 343.408 84.9987 343.419 84.965C343.425 84.9481 343.429 84.9343 343.433 84.9236C343.434 84.9183 343.436 84.9137 343.437 84.91C343.437 84.9081 343.438 84.9065 343.438 84.905C343.439 84.9043 343.439 84.9036 343.439 84.903C343.439 84.9027 343.439 84.9023 343.439 84.9021C343.44 84.9017 343.44 84.9013 341.533 84.2971C339.627 83.6929 339.627 83.6925 339.627 83.6921C339.627 83.692 339.627 83.6917 339.627 83.6915C339.627 83.691 339.627 83.6907 339.627 83.6904C339.628 83.6897 339.628 83.6893 339.628 83.689C339.628 83.6885 339.628 83.6888 339.628 83.6898C339.627 83.6918 339.625 83.6968 339.623 83.7045C339.618 83.7201 339.609 83.7467 339.596 83.7831C339.57 83.8559 339.53 83.9668 339.477 84.1047C339.368 84.3837 339.209 84.7583 339.006 85.1479C338.8 85.5435 338.572 85.9132 338.334 86.2049C338.086 86.5096 337.908 86.6312 337.832 86.667L339.537 90.2857Z" fill="#FFE066"/>
<path d="M146.861 15.6343C145.84 15.2119 144.671 15.6969 144.248 16.7175C143.826 17.7381 144.311 18.9079 145.331 19.3303L146.861 15.6343ZM150.905 18.007L151.691 19.8461L150.905 18.007ZM153.893 13.7613L155.795 14.3787L155.801 14.3608L155.807 14.3428L153.893 13.7613ZM156.603 9.64843L155.704 7.86168L156.603 9.64843ZM161.69 10.0402L162.425 8.18032L162.417 8.17719L161.69 10.0402ZM166.684 10.4763L165.832 8.66695L166.684 10.4763ZM171.44 6.90128C171.773 5.84833 171.19 4.72422 170.137 4.39051C169.084 4.0568 167.96 4.63987 167.627 5.69282L171.44 6.90128ZM146.096 17.4823C145.331 19.3303 145.332 19.3304 145.332 19.3306C145.332 19.3307 145.333 19.3308 145.333 19.331C145.334 19.3312 145.334 19.3315 145.335 19.3317C145.336 19.3323 145.338 19.3329 145.34 19.3337C145.343 19.3351 145.347 19.3368 145.352 19.3389C145.362 19.3429 145.375 19.3482 145.391 19.3545C145.423 19.367 145.466 19.3839 145.519 19.4043C145.626 19.4449 145.775 19.4997 145.957 19.5619C146.318 19.6852 146.825 19.8422 147.403 19.9738C148.423 20.2062 150.186 20.4894 151.691 19.8461L150.119 16.1678C149.882 16.269 149.24 16.2898 148.292 16.0737C147.885 15.9811 147.516 15.8674 147.248 15.776C147.116 15.7308 147.011 15.6923 146.944 15.6664C146.91 15.6535 146.885 15.6439 146.871 15.6383C146.864 15.6354 146.86 15.6336 146.858 15.6329C146.857 15.6326 146.857 15.6325 146.857 15.6327C146.858 15.6328 146.858 15.633 146.859 15.6333C146.859 15.6334 146.859 15.6336 146.86 15.6337C146.86 15.6338 146.86 15.6339 146.86 15.634C146.861 15.6341 146.861 15.6343 146.096 17.4823ZM151.691 19.8461C152.552 19.4783 153.211 18.8625 153.689 18.297C154.177 17.7188 154.567 17.0828 154.864 16.5265C155.165 15.9639 155.393 15.4378 155.546 15.0544C155.624 14.8611 155.683 14.7002 155.725 14.5841C155.745 14.5259 155.762 14.4787 155.774 14.444C155.779 14.4267 155.784 14.4125 155.788 14.4015C155.79 14.396 155.791 14.3914 155.792 14.3876C155.793 14.3857 155.794 14.384 155.794 14.3825C155.794 14.3818 155.795 14.3811 155.795 14.3805C155.795 14.3802 155.795 14.3797 155.795 14.3796C155.795 14.3791 155.795 14.3787 153.893 13.7613C151.991 13.1438 151.991 13.1434 151.991 13.143C151.991 13.1429 151.991 13.1426 151.991 13.1424C151.991 13.1419 151.992 13.1416 151.992 13.1412C151.992 13.1406 151.992 13.1402 151.992 13.1399C151.992 13.1394 151.992 13.1397 151.992 13.1408C151.991 13.143 151.989 13.1482 151.987 13.1563C151.981 13.1725 151.971 13.2001 151.958 13.2378C151.931 13.3133 151.889 13.4279 151.832 13.5703C151.717 13.8582 151.549 14.2437 151.336 14.6427C151.119 15.048 150.88 15.4236 150.632 15.7163C150.374 16.0218 150.193 16.1364 150.119 16.1678L151.691 19.8461ZM153.893 13.7613C155.807 14.3428 155.807 14.3431 155.806 14.3435C155.806 14.3436 155.806 14.3439 155.806 14.3442C155.806 14.3446 155.806 14.3449 155.806 14.3453C155.806 14.3459 155.806 14.3464 155.805 14.3466C155.805 14.3472 155.805 14.347 155.806 14.346C155.806 14.3442 155.808 14.3394 155.81 14.332C155.815 14.317 155.823 14.2913 155.835 14.2561C155.859 14.1855 155.896 14.0779 155.946 13.9438C156.048 13.6726 156.198 13.3079 156.389 12.9274C156.835 12.0392 157.269 11.5522 157.501 11.4352L155.704 7.86168C154.214 8.61124 153.292 10.1807 152.814 11.1322C152.544 11.6716 152.339 12.1726 152.202 12.5372C152.133 12.721 152.08 12.8738 152.043 12.9841C152.024 13.0394 152.01 13.0842 151.999 13.1172C151.994 13.1337 151.99 13.1473 151.986 13.1578C151.985 13.163 151.983 13.1675 151.982 13.1712C151.982 13.173 151.981 13.1746 151.981 13.1761C151.98 13.1768 151.98 13.1774 151.98 13.1781C151.98 13.1784 151.98 13.1788 151.98 13.1789C151.98 13.1794 151.979 13.1798 153.893 13.7613ZM157.501 11.4352C157.573 11.3992 157.776 11.3346 158.17 11.3309C158.547 11.3273 158.981 11.3803 159.423 11.4687C159.857 11.5558 160.253 11.668 160.542 11.7595C160.685 11.8047 160.798 11.8437 160.872 11.87C160.908 11.8831 160.935 11.893 160.951 11.8989C160.959 11.9018 160.963 11.9037 160.966 11.9044C160.967 11.9048 160.967 11.9049 160.966 11.9047C160.966 11.9046 160.966 11.9045 160.965 11.9042C160.965 11.9041 160.964 11.904 160.964 11.9038C160.964 11.9037 160.963 11.9036 160.963 11.9035C160.963 11.9034 160.963 11.9033 161.69 10.0402C162.417 8.17719 162.417 8.17704 162.416 8.17688C162.416 8.17682 162.416 8.17666 162.416 8.17654C162.415 8.1763 162.414 8.17604 162.414 8.17577C162.412 8.17521 162.411 8.17457 162.409 8.17386C162.405 8.17244 162.401 8.17071 162.395 8.16868C162.385 8.16463 162.371 8.15939 162.354 8.15308C162.32 8.14047 162.274 8.12352 162.217 8.10315C162.103 8.06246 161.944 8.00768 161.75 7.94607C161.364 7.82385 160.823 7.66975 160.208 7.5467C159.601 7.42502 158.875 7.32396 158.131 7.33105C157.404 7.33799 156.525 7.44881 155.704 7.86168L157.501 11.4352ZM161.69 10.0402C160.955 11.9001 160.955 11.9003 160.955 11.9004C160.955 11.9005 160.956 11.9007 160.956 11.9008C160.957 11.901 160.957 11.9013 160.958 11.9015C160.96 11.9021 160.961 11.9027 160.963 11.9034C160.967 11.9049 160.971 11.9066 160.976 11.9086C160.987 11.9126 161 11.9178 161.016 11.924C161.049 11.9365 161.094 11.9533 161.15 11.9735C161.261 12.0139 161.417 12.0682 161.607 12.1295C161.984 12.2511 162.513 12.405 163.114 12.53C164.174 12.7507 166.005 13.0069 167.537 12.2857L165.832 8.66695C165.587 8.78221 164.921 8.82037 163.928 8.61387C163.503 8.52532 163.116 8.41334 162.834 8.32249C162.695 8.27755 162.585 8.23901 162.513 8.21303C162.478 8.20007 162.452 8.19032 162.436 8.18459C162.429 8.18173 162.424 8.17987 162.422 8.17913C162.421 8.17876 162.421 8.17866 162.422 8.17886C162.422 8.17896 162.422 8.17913 162.423 8.17938C162.423 8.1795 162.424 8.17964 162.424 8.1798C162.424 8.17988 162.424 8.18001 162.425 8.18005C162.425 8.18019 162.425 8.18034 161.69 10.0402ZM167.537 12.2857C168.356 11.8996 168.982 11.2878 169.437 10.7298C169.901 10.1588 170.273 9.53635 170.555 8.99263C170.841 8.44294 171.058 7.93093 171.203 7.5581C171.277 7.37019 171.333 7.21384 171.373 7.10102C171.392 7.04451 171.408 6.99867 171.419 6.96495C171.425 6.94808 171.429 6.93422 171.433 6.92355C171.434 6.91822 171.436 6.91368 171.437 6.90996C171.437 6.90811 171.438 6.90645 171.438 6.905C171.439 6.90428 171.439 6.90361 171.439 6.90299C171.439 6.90268 171.439 6.90225 171.439 6.9021C171.44 6.90168 171.44 6.90128 169.533 6.29705C167.627 5.69282 167.627 5.69245 167.627 5.69209C167.627 5.69198 167.627 5.69163 167.627 5.69143C167.627 5.69101 167.627 5.69064 167.627 5.69032C167.628 5.68968 167.628 5.68924 167.628 5.68898C167.628 5.68848 167.628 5.68874 167.628 5.68974C167.627 5.69175 167.625 5.69672 167.623 5.70449C167.618 5.72004 167.609 5.74668 167.596 5.78303C167.57 5.85591 167.53 5.96673 167.477 6.1047C167.368 6.38365 167.209 6.75824 167.006 7.1479C166.8 7.54352 166.572 7.91315 166.334 8.20491C166.086 8.50956 165.908 8.63119 165.832 8.66695L167.537 12.2857Z" fill="#3DDC97"/>
<path d="M4.86104 205.634C3.84042 205.212 2.67064 205.697 2.24826 206.718C1.82589 207.738 2.31087 208.908 3.3315 209.33L4.86104 205.634ZM8.9051 208.007L9.69094 209.846L8.9051 208.007ZM11.8931 203.761L13.7954 204.379L13.8012 204.361L13.8067 204.343L11.8931 203.761ZM14.6026 199.648L13.704 197.862L14.6026 199.648ZM19.6899 200.04L20.4253 198.18L20.4173 198.177L19.6899 200.04ZM24.6844 200.476L23.8322 198.667L24.6844 200.476ZM29.4397 196.901C29.7734 195.848 29.1903 194.724 28.1373 194.391C27.0844 194.057 25.9603 194.64 25.6266 195.693L29.4397 196.901ZM4.09627 207.482C3.3315 209.33 3.33188 209.33 3.33227 209.331C3.33242 209.331 3.33282 209.331 3.33312 209.331C3.3337 209.331 3.33434 209.331 3.33502 209.332C3.33639 209.332 3.33795 209.333 3.3397 209.334C3.34319 209.335 3.34745 209.337 3.35245 209.339C3.36244 209.343 3.37542 209.348 3.39123 209.354C3.42285 209.367 3.46591 209.384 3.51932 209.404C3.62596 209.445 3.77484 209.5 3.95701 209.562C4.31846 209.685 4.82547 209.842 5.40321 209.974C6.42325 210.206 8.18555 210.489 9.69094 209.846L8.11925 206.168C7.88249 206.269 7.24037 206.29 6.29154 206.074C5.88485 205.981 5.5163 205.867 5.2483 205.776C5.11576 205.731 5.01144 205.692 4.94357 205.666C4.90972 205.654 4.8852 205.644 4.87104 205.638C4.86397 205.635 4.85951 205.634 4.85779 205.633C4.85694 205.633 4.85677 205.633 4.8573 205.633C4.85757 205.633 4.85801 205.633 4.85864 205.633C4.85895 205.633 4.8593 205.634 4.8597 205.634C4.8599 205.634 4.86024 205.634 4.86034 205.634C4.86068 205.634 4.86104 205.634 4.09627 207.482ZM9.69094 209.846C10.5518 209.478 11.211 208.863 11.6885 208.297C12.1768 207.719 12.5673 207.083 12.8643 206.527C13.1647 205.964 13.3931 205.438 13.5463 205.054C13.6235 204.861 13.6832 204.7 13.7247 204.584C13.7455 204.526 13.7618 204.479 13.7736 204.444C13.7795 204.427 13.7842 204.412 13.7879 204.402C13.7897 204.396 13.7912 204.391 13.7925 204.388C13.7931 204.386 13.7937 204.384 13.7941 204.383C13.7944 204.382 13.7946 204.381 13.7948 204.38C13.7949 204.38 13.7951 204.38 13.7951 204.38C13.7952 204.379 13.7954 204.379 11.8931 203.761C9.99079 203.144 9.99091 203.143 9.99103 203.143C9.99107 203.143 9.99118 203.143 9.99125 203.142C9.99139 203.142 9.99151 203.142 9.99161 203.141C9.99182 203.141 9.99197 203.14 9.99205 203.14C9.99221 203.139 9.99211 203.14 9.99175 203.141C9.99103 203.143 9.98929 203.148 9.98654 203.156C9.98103 203.173 9.97149 203.2 9.95803 203.238C9.93104 203.313 9.88869 203.428 9.8318 203.57C9.71677 203.858 9.54867 204.244 9.33567 204.643C9.1193 205.048 8.87962 205.424 8.63243 205.716C8.37448 206.022 8.19291 206.136 8.11925 206.168L9.69094 209.846ZM11.8931 203.761C13.8067 204.343 13.8066 204.343 13.8065 204.344C13.8064 204.344 13.8063 204.344 13.8063 204.344C13.8061 204.345 13.806 204.345 13.8059 204.345C13.8057 204.346 13.8056 204.346 13.8055 204.347C13.8053 204.347 13.8054 204.347 13.8057 204.346C13.8063 204.344 13.8077 204.339 13.8101 204.332C13.8149 204.317 13.8232 204.291 13.835 204.256C13.8587 204.185 13.896 204.078 13.9464 203.944C14.0483 203.673 14.1979 203.308 14.3889 202.927C14.8351 202.039 15.2685 201.552 15.5012 201.435L13.704 197.862C12.2136 198.611 11.2923 200.181 10.8144 201.132C10.5435 201.672 10.3388 202.173 10.2019 202.537C10.1328 202.721 10.0796 202.874 10.0426 202.984C10.0241 203.039 10.0096 203.084 9.99904 203.117C9.99377 203.134 9.9895 203.147 9.98625 203.158C9.98462 203.163 9.98324 203.168 9.98211 203.171C9.98155 203.173 9.98105 203.175 9.98061 203.176C9.98039 203.177 9.98019 203.177 9.98 203.178C9.97991 203.178 9.97978 203.179 9.97973 203.179C9.97961 203.179 9.97949 203.18 11.8931 203.761ZM15.5012 201.435C15.5727 201.399 15.7756 201.335 16.1695 201.331C16.5467 201.327 16.9811 201.38 17.4226 201.469C17.8573 201.556 18.2533 201.668 18.5423 201.76C18.6852 201.805 18.798 201.844 18.8717 201.87C18.9084 201.883 18.9352 201.893 18.9507 201.899C18.9585 201.902 18.9635 201.904 18.9655 201.904C18.9665 201.905 18.9668 201.905 18.9663 201.905C18.966 201.905 18.9656 201.904 18.965 201.904C18.9647 201.904 18.9643 201.904 18.9639 201.904C18.9637 201.904 18.9633 201.904 18.9632 201.904C18.9629 201.903 18.9625 201.903 19.6899 200.04C20.4173 198.177 20.4169 198.177 20.4165 198.177C20.4163 198.177 20.4159 198.177 20.4156 198.177C20.415 198.176 20.4143 198.176 20.4136 198.176C20.4122 198.175 20.4106 198.175 20.4087 198.174C20.405 198.172 20.4005 198.171 20.3952 198.169C20.3846 198.165 20.3708 198.159 20.354 198.153C20.3203 198.14 20.2744 198.124 20.2173 198.103C20.1034 198.062 19.9443 198.008 19.7497 197.946C19.3637 197.824 18.8225 197.67 18.2085 197.547C17.6013 197.425 16.8753 197.324 16.1314 197.331C15.4041 197.338 14.5249 197.449 13.704 197.862L15.5012 201.435ZM19.6899 200.04C18.9545 201.9 18.9549 201.9 18.9553 201.9C18.9554 201.901 18.9559 201.901 18.9562 201.901C18.9568 201.901 18.9574 201.901 18.9581 201.902C18.9595 201.902 18.9611 201.903 18.9629 201.903C18.9665 201.905 18.971 201.907 18.9761 201.909C18.9865 201.913 19 201.918 19.0165 201.924C19.0494 201.937 19.0943 201.953 19.15 201.974C19.2613 202.014 19.4167 202.068 19.6068 202.13C19.984 202.251 20.5128 202.405 21.1138 202.53C22.1744 202.751 24.0052 203.007 25.5365 202.286L23.8322 198.667C23.5875 198.782 22.9211 198.82 21.9285 198.614C21.5029 198.525 21.116 198.413 20.8343 198.323C20.6949 198.278 20.585 198.239 20.5133 198.213C20.4776 198.2 20.4516 198.19 20.4365 198.185C20.429 198.182 20.4241 198.18 20.4222 198.179C20.4213 198.179 20.421 198.179 20.4215 198.179C20.4218 198.179 20.4222 198.179 20.4228 198.179C20.4232 198.18 20.4235 198.18 20.4239 198.18C20.4241 198.18 20.4245 198.18 20.4246 198.18C20.4249 198.18 20.4253 198.18 19.6899 200.04ZM25.5365 202.286C26.3564 201.9 26.9824 201.288 27.4366 200.73C27.9012 200.159 28.2726 199.536 28.5552 198.993C28.8409 198.443 29.0579 197.931 29.2033 197.558C29.2765 197.37 29.3331 197.214 29.3725 197.101C29.3922 197.045 29.4077 196.999 29.4189 196.965C29.4245 196.948 29.4291 196.934 29.4325 196.924C29.4342 196.918 29.4357 196.914 29.4369 196.91C29.4375 196.908 29.438 196.906 29.4385 196.905C29.4387 196.904 29.4389 196.904 29.4391 196.903C29.4392 196.903 29.4394 196.902 29.4394 196.902C29.4395 196.902 29.4397 196.901 27.5331 196.297C25.6266 195.693 25.6267 195.692 25.6268 195.692C25.6268 195.692 25.627 195.692 25.627 195.691C25.6272 195.691 25.6273 195.691 25.6274 195.69C25.6276 195.69 25.6277 195.689 25.6278 195.689C25.628 195.688 25.6279 195.689 25.6276 195.69C25.6269 195.692 25.6253 195.697 25.6227 195.705C25.6175 195.72 25.6086 195.747 25.5959 195.783C25.5705 195.856 25.5305 195.967 25.4766 196.105C25.3679 196.384 25.2085 196.758 25.006 197.148C24.8004 197.544 24.5716 197.913 24.3341 198.205C24.0862 198.51 23.9082 198.631 23.8322 198.667L25.5365 202.286Z" fill="#5085F0"/>
<path d="M282.861 185.634C281.84 185.212 280.671 185.697 280.248 186.718C279.826 187.738 280.311 188.908 281.331 189.33L282.861 185.634ZM286.905 188.007L287.691 189.846L286.905 188.007ZM289.893 183.761L291.795 184.379L291.801 184.361L291.807 184.343L289.893 183.761ZM292.603 179.648L291.704 177.862L292.603 179.648ZM297.69 180.04L298.425 178.18L298.417 178.177L297.69 180.04ZM302.684 180.476L301.832 178.667L302.684 180.476ZM307.44 176.901C307.773 175.848 307.19 174.724 306.137 174.391C305.084 174.057 303.96 174.64 303.627 175.693L307.44 176.901ZM282.096 187.482C281.331 189.33 281.332 189.33 281.332 189.331C281.332 189.331 281.333 189.331 281.333 189.331C281.334 189.331 281.334 189.331 281.335 189.332C281.336 189.332 281.338 189.333 281.34 189.334C281.343 189.335 281.347 189.337 281.352 189.339C281.362 189.343 281.375 189.348 281.391 189.354C281.423 189.367 281.466 189.384 281.519 189.404C281.626 189.445 281.775 189.5 281.957 189.562C282.318 189.685 282.825 189.842 283.403 189.974C284.423 190.206 286.186 190.489 287.691 189.846L286.119 186.168C285.882 186.269 285.24 186.29 284.292 186.074C283.885 185.981 283.516 185.867 283.248 185.776C283.116 185.731 283.011 185.692 282.944 185.666C282.91 185.654 282.885 185.644 282.871 185.638C282.864 185.635 282.86 185.634 282.858 185.633C282.857 185.633 282.857 185.633 282.857 185.633C282.858 185.633 282.858 185.633 282.859 185.633C282.859 185.633 282.859 185.634 282.86 185.634C282.86 185.634 282.86 185.634 282.86 185.634C282.861 185.634 282.861 185.634 282.096 187.482ZM287.691 189.846C288.552 189.478 289.211 188.863 289.689 188.297C290.177 187.719 290.567 187.083 290.864 186.527C291.165 185.964 291.393 185.438 291.546 185.054C291.624 184.861 291.683 184.7 291.725 184.584C291.745 184.526 291.762 184.479 291.774 184.444C291.779 184.427 291.784 184.412 291.788 184.402C291.79 184.396 291.791 184.391 291.792 184.388C291.793 184.386 291.794 184.384 291.794 184.383C291.794 184.382 291.795 184.381 291.795 184.38C291.795 184.38 291.795 184.38 291.795 184.38C291.795 184.379 291.795 184.379 289.893 183.761C287.991 183.144 287.991 183.143 287.991 183.143C287.991 183.143 287.991 183.143 287.991 183.142C287.991 183.142 287.992 183.142 287.992 183.141C287.992 183.141 287.992 183.14 287.992 183.14C287.992 183.139 287.992 183.14 287.992 183.141C287.991 183.143 287.989 183.148 287.987 183.156C287.981 183.173 287.971 183.2 287.958 183.238C287.931 183.313 287.889 183.428 287.832 183.57C287.717 183.858 287.549 184.244 287.336 184.643C287.119 185.048 286.88 185.424 286.632 185.716C286.374 186.022 286.193 186.136 286.119 186.168L287.691 189.846ZM289.893 183.761C291.807 184.343 291.807 184.343 291.806 184.344C291.806 184.344 291.806 184.344 291.806 184.344C291.806 184.345 291.806 184.345 291.806 184.345C291.806 184.346 291.806 184.346 291.805 184.347C291.805 184.347 291.805 184.347 291.806 184.346C291.806 184.344 291.808 184.339 291.81 184.332C291.815 184.317 291.823 184.291 291.835 184.256C291.859 184.185 291.896 184.078 291.946 183.944C292.048 183.673 292.198 183.308 292.389 182.927C292.835 182.039 293.269 181.552 293.501 181.435L291.704 177.862C290.214 178.611 289.292 180.181 288.814 181.132C288.544 181.672 288.339 182.173 288.202 182.537C288.133 182.721 288.08 182.874 288.043 182.984C288.024 183.039 288.01 183.084 287.999 183.117C287.994 183.134 287.99 183.147 287.986 183.158C287.985 183.163 287.983 183.168 287.982 183.171C287.982 183.173 287.981 183.175 287.981 183.176C287.98 183.177 287.98 183.177 287.98 183.178C287.98 183.178 287.98 183.179 287.98 183.179C287.98 183.179 287.979 183.18 289.893 183.761ZM293.501 181.435C293.573 181.399 293.776 181.335 294.17 181.331C294.547 181.327 294.981 181.38 295.423 181.469C295.857 181.556 296.253 181.668 296.542 181.76C296.685 181.805 296.798 181.844 296.872 181.87C296.908 181.883 296.935 181.893 296.951 181.899C296.959 181.902 296.963 181.904 296.966 181.904C296.967 181.905 296.967 181.905 296.966 181.905C296.966 181.905 296.966 181.904 296.965 181.904C296.965 181.904 296.964 181.904 296.964 181.904C296.964 181.904 296.963 181.904 296.963 181.904C296.963 181.903 296.963 181.903 297.69 180.04C298.417 178.177 298.417 178.177 298.416 178.177C298.416 178.177 298.416 178.177 298.416 178.177C298.415 178.176 298.414 178.176 298.414 178.176C298.412 178.175 298.411 178.175 298.409 178.174C298.405 178.172 298.401 178.171 298.395 178.169C298.385 178.165 298.371 178.159 298.354 178.153C298.32 178.14 298.274 178.124 298.217 178.103C298.103 178.062 297.944 178.008 297.75 177.946C297.364 177.824 296.823 177.67 296.208 177.547C295.601 177.425 294.875 177.324 294.131 177.331C293.404 177.338 292.525 177.449 291.704 177.862L293.501 181.435ZM297.69 180.04C296.955 181.9 296.955 181.9 296.955 181.9C296.955 181.901 296.956 181.901 296.956 181.901C296.957 181.901 296.957 181.901 296.958 181.902C296.96 181.902 296.961 181.903 296.963 181.903C296.967 181.905 296.971 181.907 296.976 181.909C296.987 181.913 297 181.918 297.016 181.924C297.049 181.937 297.094 181.953 297.15 181.974C297.261 182.014 297.417 182.068 297.607 182.13C297.984 182.251 298.513 182.405 299.114 182.53C300.174 182.751 302.005 183.007 303.537 182.286L301.832 178.667C301.587 178.782 300.921 178.82 299.928 178.614C299.503 178.525 299.116 178.413 298.834 178.323C298.695 178.278 298.585 178.239 298.513 178.213C298.478 178.2 298.452 178.19 298.436 178.185C298.429 178.182 298.424 178.18 298.422 178.179C298.421 178.179 298.421 178.179 298.422 178.179C298.422 178.179 298.422 178.179 298.423 178.179C298.423 178.18 298.424 178.18 298.424 178.18C298.424 178.18 298.424 178.18 298.425 178.18C298.425 178.18 298.425 178.18 297.69 180.04ZM303.537 182.286C304.356 181.9 304.982 181.288 305.437 180.73C305.901 180.159 306.273 179.536 306.555 178.993C306.841 178.443 307.058 177.931 307.203 177.558C307.277 177.37 307.333 177.214 307.373 177.101C307.392 177.045 307.408 176.999 307.419 176.965C307.425 176.948 307.429 176.934 307.433 176.924C307.434 176.918 307.436 176.914 307.437 176.91C307.437 176.908 307.438 176.906 307.438 176.905C307.439 176.904 307.439 176.904 307.439 176.903C307.439 176.903 307.439 176.902 307.439 176.902C307.44 176.902 307.44 176.901 305.533 176.297C303.627 175.693 303.627 175.692 303.627 175.692C303.627 175.692 303.627 175.692 303.627 175.691C303.627 175.691 303.627 175.691 303.627 175.69C303.628 175.69 303.628 175.689 303.628 175.689C303.628 175.688 303.628 175.689 303.628 175.69C303.627 175.692 303.625 175.697 303.623 175.705C303.618 175.72 303.609 175.747 303.596 175.783C303.57 175.856 303.53 175.967 303.477 176.105C303.368 176.384 303.209 176.758 303.006 177.148C302.8 177.544 302.572 177.913 302.334 178.205C302.086 178.51 301.908 178.631 301.832 178.667L303.537 182.286Z" fill="#FF715B"/>
<path d="M145.643 281.166C144.66 281.859 143.661 282.493 142.561 282.931C141.587 283.317 140.403 283.709 139.413 283.425C137.472 282.867 137.752 280.333 138.925 278.903C139.677 277.988 140.636 277.278 141.659 276.75C141.885 276.633 142.114 276.525 142.345 276.423C141.308 274.308 142.853 271.458 144.752 270.187C146.055 269.316 148.373 268.547 149.367 270.044L149.568 270.622L149.414 270.709C149.407 270.713 148.788 270.264 148.743 270.241C148.336 270.031 147.93 270.048 147.453 270.142C145.508 270.521 143.786 273.333 144.291 275.223C144.344 275.42 144.418 275.61 144.526 275.777C144.633 275.941 144.762 276.076 144.922 276.182C144.97 276.214 145.019 276.245 145.066 276.277C145.141 276.329 145.221 276.381 145.281 276.452C145.32 276.498 145.349 276.555 145.377 276.61C145.443 276.741 145.463 276.892 145.374 277.034C145.306 277.139 145.184 277.219 145.078 277.273C144.882 277.373 144.436 277.431 144.225 277.448C142.401 277.59 139.992 279.39 140.518 281.569C140.876 283.047 142.643 282.436 143.624 281.865C144.409 281.406 145.19 280.855 145.907 280.283" fill="white"/>
<path d="M146.034 274.198C145.957 274.224 145.863 274.237 145.809 274.312C145.653 274.527 145.971 274.715 146.115 274.764C146.402 274.859 146.769 274.858 147.077 274.842C147.338 274.83 147.592 274.752 147.818 274.615C148.253 274.352 148.66 273.948 148.975 273.54C149.333 273.076 149.586 272.54 149.871 272.031C150.147 271.54 150.421 271.039 150.73 270.567C151 270.155 151.319 269.836 151.738 269.596C151.781 269.571 151.827 269.538 151.873 269.52C151.958 269.486 151.916 269.34 151.888 269.297C151.673 268.968 151.058 268.969 150.697 269.034C150.256 269.114 149.923 269.375 149.591 269.677C149.215 270.019 148.911 270.502 148.668 270.946C148.469 271.309 148.298 271.699 148.143 272.082C148.144 272.083 147.458 273.719 146.034 274.198ZM152.101 280.496C150.907 280.745 151.048 279.448 151.048 279.448L152.766 276.773C153.015 276.397 153.235 276.014 153.365 275.582C153.391 275.498 153.354 275.354 153.318 275.286C153.271 275.196 153.188 275.139 153.101 275.101C152.916 275.02 152.701 275.008 152.496 275.034C152.381 275.049 152.265 275.074 152.152 275.106C151.842 275.193 151.589 275.299 151.353 275.556C149.926 277.108 150.016 279.743 150.016 279.743C148.193 282.191 146.455 282.418 146.455 282.418C146.7 281.837 147.035 281.285 147.348 280.741C147.724 280.087 148.114 279.444 148.505 278.799C148.874 278.187 149.226 277.564 149.561 276.931C149.759 276.561 150.028 276.145 150.117 275.731C150.133 275.657 150.159 275.5 150.116 275.435C149.956 275.196 149.647 275.174 149.387 275.151C149.031 275.119 148.68 275.097 148.318 275.173C148.099 275.22 147.714 275.295 147.574 275.525C147.475 275.688 147.579 275.816 147.605 275.968C147.65 276.237 147.552 276.53 147.469 276.793C147.397 277.02 147.3 277.242 147.211 277.464C146.997 277.995 146.721 278.501 146.454 279.007C145.927 280.008 145.314 280.992 144.946 282.066C144.802 282.488 144.675 282.967 144.78 283.391C144.78 283.391 145.972 284.865 150.221 280.286C150.221 280.286 150.7 281.198 152.014 281.017L152.101 280.496Z" fill="white"/>
<path d="M158.534 275.697C158.534 275.697 154.874 276.849 153.977 281.178C153.977 281.178 153.255 284.816 158.51 280.717L158.126 281.638C155.132 284.056 153.266 283.595 153.266 283.595C151.21 283.158 152.149 280.28 152.149 280.28C154.082 274.868 158.862 274.983 158.862 274.983" fill="white"/>
<path d="M154.054 280.043C154.054 280.043 156.387 280.16 158.107 275.756C158.126 275.709 158.132 275.656 158.151 275.607C158.198 275.487 158.264 275.374 158.341 275.27C158.449 275.121 158.578 274.989 158.723 274.879C158.913 274.739 159.132 274.649 159.362 274.616C159.704 274.564 160.048 274.604 160.382 274.642C160.427 274.647 160.475 274.649 160.52 274.658C160.625 274.678 160.757 274.691 160.81 274.798C160.883 274.947 160.741 275.092 160.628 275.189C159.985 275.74 159.573 276.504 159.106 277.207C158.334 278.367 157.266 279.287 156.059 279.921C155.49 280.22 154.902 280.396 154.291 280.525C154.214 280.541 154.137 280.561 154.059 280.573L154.054 280.043ZM164.853 281.591C164.327 282.279 163.71 282.875 162.964 283.284C162.389 283.599 161.611 283.559 161.145 283.156C161.111 283.124 161.082 283.086 161.06 283.044C160.937 282.824 160.994 282.568 161.033 282.318C161.06 282.151 161.088 281.984 161.121 281.818C161.185 281.49 161.27 281.167 161.374 280.85C161.579 280.237 161.874 279.656 162.211 279.1C162.523 278.59 162.858 278.097 163.216 277.62C163.483 277.26 163.764 276.912 164.058 276.575C164.182 276.434 164.309 276.296 164.441 276.163L164.466 276.139C164.267 276.216 164.073 276.332 163.896 276.456C163.666 276.618 163.447 276.8 163.234 276.985C162.983 277.203 162.747 277.439 162.514 277.677C162.259 277.934 162.011 278.199 161.771 278.471C161.523 278.755 161.279 279.042 161.038 279.333C160.797 279.623 160.573 279.927 160.344 280.227C160.132 280.505 159.923 280.783 159.731 281.074C159.565 281.326 159.39 281.573 159.232 281.829C159.091 282.058 159.021 282.248 158.897 282.485C158.801 282.667 158.7 282.919 158.659 283.117C158.623 283.29 158.609 283.489 158.503 283.642C158.48 283.676 158.448 283.703 158.412 283.722C158.376 283.741 158.336 283.75 158.296 283.75C158.178 283.745 157.796 283.489 157.71 283.431C157.501 283.287 157.307 283.11 157.182 282.881C157.14 282.807 157.137 282.644 157.171 282.561C157.297 282.254 157.469 281.954 157.639 281.668C157.852 281.311 158.085 280.966 158.32 280.624C158.56 280.275 158.804 279.93 159.053 279.589C159.257 279.309 159.464 279.033 159.673 278.758L159.943 278.404L159.957 278.386C160.254 278.011 160.505 277.6 160.705 277.161C160.907 276.716 161.009 276.254 160.958 275.785C160.945 275.664 160.933 275.533 161 275.418C161.092 275.261 162.174 275.122 162.502 275.114C162.633 275.111 162.774 275.11 162.895 275.158C163.28 275.311 163.259 275.791 163.041 276.379C163.046 276.366 163.097 276.34 163.109 276.331C163.156 276.297 163.202 276.262 163.249 276.227C163.432 276.094 163.622 275.971 163.818 275.859C164.074 275.715 164.339 275.586 164.61 275.473C164.902 275.35 165.203 275.239 165.511 275.199C165.962 275.139 166.494 275.199 166.798 275.544C166.884 275.643 166.975 275.768 167.025 275.893C167.068 275.997 167.109 276.148 167.056 276.264C167.006 276.371 166.894 276.438 166.806 276.508C166.428 276.808 166.003 277.045 165.652 277.383C165.413 277.613 165.18 277.843 164.963 278.095C164.694 278.408 164.436 278.727 164.203 279.068C163.929 279.469 163.673 279.882 163.451 280.314C163.196 280.808 162.975 281.321 162.79 281.847C162.718 282.054 162.634 282.484 162.924 282.507C163.201 282.53 163.48 282.306 163.697 282.137C163.697 282.137 164.755 281.335 165.249 280.463" fill="white"/>
<path d="M164.911 281.166C165.059 280.826 165.22 280.492 165.395 280.167C165.584 279.813 165.781 279.465 165.988 279.123C166.207 278.761 166.433 278.403 166.665 278.05C166.904 277.685 167.148 277.323 167.396 276.964C167.645 276.604 167.897 276.245 168.151 275.889C168.398 275.541 168.648 275.195 168.897 274.848C169.133 274.519 169.37 274.191 169.605 273.86C169.823 273.553 170.039 273.245 170.252 272.934C170.444 272.656 170.63 272.374 170.811 272.088C170.97 271.836 171.116 271.578 171.263 271.319C171.326 271.209 171.38 271.077 171.471 270.986C171.931 270.526 172.57 270.407 173.151 270.278C173.446 270.212 173.742 270.153 174.038 270.101C174.095 270.091 174.152 270.081 174.209 270.076C174.352 270.064 174.443 270.113 174.396 270.275C174.332 270.497 174.195 270.697 174.061 270.885C173.824 271.218 173.593 271.562 173.32 271.866C172.983 272.239 172.655 272.62 172.335 273.008C172.123 273.266 171.91 273.524 171.7 273.784C171.448 274.098 171.196 274.411 170.947 274.728C170.667 275.083 170.391 275.44 170.116 275.8C169.825 276.182 169.538 276.568 169.254 276.957C168.966 277.353 168.682 277.752 168.404 278.156C168.133 278.549 167.869 278.948 167.612 279.352C167.372 279.729 167.143 280.113 166.924 280.503C166.728 280.848 166.548 281.202 166.384 281.564C166.248 281.865 166.125 282.172 166.04 282.489C166.022 282.553 165.999 282.621 165.988 282.686C165.988 282.686 165.865 283.39 166.721 283.111C166.9 283.053 167.082 282.96 167.245 282.861C167.447 282.739 167.634 282.59 167.811 282.431C168.014 282.249 168.205 282.052 168.382 281.842C168.568 281.622 168.73 281.382 168.864 281.124C169.036 280.795 169.231 280.455 169.27 280.085C169.303 279.781 169.203 279.478 169.083 279.219C168.999 279.037 169.133 278.937 169.297 278.892C169.542 278.825 169.791 278.788 170.04 278.753C170.276 278.72 170.536 278.698 170.759 278.769C170.926 278.823 171.108 278.916 171.205 279.069C171.256 279.151 171.294 279.27 171.294 279.372C171.296 279.73 171.102 280.026 170.916 280.328C170.708 280.671 170.48 280.999 170.232 281.312C169.994 281.61 169.746 281.902 169.477 282.171C169.19 282.459 168.874 282.722 168.545 282.954C168.202 283.196 167.83 283.389 167.438 283.53C167.034 283.675 166.609 283.745 166.182 283.737C166.129 283.736 166.076 283.737 166.024 283.733C166.024 283.733 164.087 283.799 164.911 281.166Z" fill="white"/>
<path d="M151.905 272.723L151.816 272.756C151.715 272.793 151.521 272.806 151.518 272.971C151.514 273.131 151.732 273.156 151.835 273.168C152.402 273.232 152.995 272.968 153.561 272.864C154.498 272.695 155.444 272.587 156.393 272.542C156.946 272.516 157.499 272.509 158.052 272.521C158.782 272.533 159.508 272.576 160.233 272.63C160.89 272.68 161.545 272.745 162.198 272.825C162.732 272.888 163.264 272.964 163.795 273.053C163.867 273.07 163.938 273.09 164.011 273.103C164.211 273.142 164.411 273.177 164.611 273.216C164.917 273.276 165.222 273.339 165.528 273.395C165.908 273.464 166.289 273.521 166.673 273.57C167.115 273.628 167.558 273.681 168.001 273.735C168.465 273.791 168.929 273.846 169.397 273.877C171.417 274.014 173.779 274.092 175.798 273.494C176.15 273.39 176.896 272.79 176.116 272.88C173.296 273.205 170.215 273.09 167.49 272.562C166.768 272.423 166.052 272.253 165.33 272.11C164.486 271.942 163.641 271.775 162.788 271.652C161.801 271.509 160.803 271.451 159.798 271.454C158.59 271.458 157.372 271.5 156.159 271.642C154.768 271.806 153.412 272.177 152.06 272.666L151.905 272.723ZM189.013 276.094C188.88 276.118 188.75 276.152 188.62 276.193C188.28 276.301 187.951 276.44 187.635 276.61C187.17 276.857 186.727 277.146 186.311 277.473C185.787 277.884 185.314 278.361 184.944 278.92C184.424 279.702 183.986 280.563 183.805 281.473C183.757 281.716 183.767 281.992 183.852 282.216C183.955 282.485 184.154 282.621 184.453 282.529C184.73 282.443 185.017 282.248 185.251 282.068L185.369 282.518C184.919 283.027 184.37 283.494 183.721 283.665C182.897 283.882 181.996 283.363 181.837 282.534C181.783 282.245 181.776 281.948 181.817 281.656C181.899 281.128 182.04 280.607 182.28 280.117C182.329 280.016 182.385 279.918 182.429 279.816C185.53 274.829 189.399 275.494 189.399 275.494L189.013 276.094Z" fill="white"/>
<path d="M189.217 281.617C188.769 282.378 188.007 282.9 187.273 283.333C186.824 283.598 186.218 283.875 185.777 283.554C185.557 283.389 185.386 283.163 185.283 282.902C185.01 282.178 185.385 281.345 185.697 280.648C185.976 280.025 186.324 279.436 186.696 278.861C187.06 278.298 187.463 277.768 187.877 277.24C188.224 276.798 188.588 276.382 188.963 275.964C189.244 275.651 189.475 275.366 189.821 275.121C190.097 274.925 190.419 274.854 190.739 274.893C191.002 274.925 191.762 275.09 191.554 275.505C191.488 275.637 191.357 275.742 191.255 275.847C191.013 276.095 190.764 276.338 190.531 276.595C190.182 276.98 189.839 277.371 189.502 277.768C189.107 278.232 188.725 278.709 188.358 279.197C188.005 279.668 187.666 280.15 187.372 280.659C187.177 280.997 186.952 281.337 186.85 281.713C186.769 282.01 186.715 282.609 187.121 282.653C187.316 282.674 187.611 282.508 187.768 282.389C187.768 282.389 189.265 281.424 189.691 280.491L189.217 281.617ZM190.973 280.56C190.973 280.56 196.398 277.034 197.28 275.554C197.28 275.554 197.579 274.94 196.673 274.877C196.32 274.856 195.908 274.86 195.577 275.038C195.19 275.246 194.858 275.573 194.608 275.932C194.608 275.932 193.082 278.325 193.133 279.553C193.133 279.553 193.331 281.221 195.759 280.025L196.149 279.143C195.13 280.025 194.281 280.088 193.942 279.647C193.603 279.206 194.327 277.727 194.327 277.727L193.831 278.01L191.315 279.867" fill="white"/>
<path d="M194.054 274.833C193.933 274.787 193.792 274.788 193.66 274.791C193.333 274.798 192.251 274.931 192.159 275.083C192.092 275.194 192.105 275.32 192.119 275.436C192.141 275.628 192.136 275.823 192.106 276.014C191.987 276.431 191.741 276.865 191.568 277.197C191.269 277.769 190.921 278.318 190.579 278.866C190.016 279.768 189.405 280.666 188.985 281.638C188.802 282.061 188.644 282.51 188.65 282.963C188.651 283.046 188.721 283.266 188.806 283.347C188.984 283.52 189.289 283.646 189.663 283.74C189.93 283.808 189.997 283.484 190.032 283.29C190.093 282.954 190.214 282.659 190.357 282.34C190.666 281.655 191.038 280.941 191.401 280.277C191.864 279.428 192.336 278.648 192.907 277.862C193.36 277.238 193.84 276.597 194.171 275.904C194.279 275.679 194.386 275.485 194.353 275.237C194.328 275.051 194.231 274.9 194.054 274.833ZM199.761 274.872C199.635 274.826 199.488 274.827 199.351 274.83C199.01 274.837 197.883 274.971 197.788 275.123C197.719 275.233 197.733 275.36 197.747 275.476C197.767 275.638 197.767 275.803 197.747 275.966C197.612 276.439 197.397 276.89 197.161 277.328C196.893 277.825 196.612 278.315 196.317 278.795C196.014 279.29 195.736 279.797 195.46 280.307C195.196 280.796 195.003 281.28 194.84 281.803C194.739 282.126 194.617 282.441 194.667 282.774C194.688 282.916 194.742 283.05 194.825 283.164C194.908 283.278 195.017 283.369 195.143 283.428C195.328 283.517 195.678 283.659 195.889 283.524C196.045 283.424 196.033 283.228 196.032 283.074C196.029 282.776 196.12 282.494 196.223 282.208C196.331 281.907 196.467 281.614 196.619 281.329C196.705 281.17 196.795 281.013 196.889 280.857C197.195 280.351 197.522 279.86 197.871 279.385C197.936 279.294 198 279.201 198.071 279.115C198.562 278.531 198.969 277.887 199.356 277.236C199.466 277.051 199.574 276.865 199.683 276.68C199.946 276.232 200.122 275.807 200.078 275.301C200.061 275.101 199.948 274.94 199.761 274.872Z" fill="white"/>
<path d="M208 279.219C207.996 279.112 207.965 279.008 207.91 278.918C207.814 278.767 207.631 278.674 207.464 278.62C207.242 278.549 206.981 278.572 206.745 278.604C206.497 278.639 206.248 278.676 206.003 278.742C205.838 278.787 205.705 278.886 205.789 279.067C205.909 279.324 206.009 279.626 205.977 279.927C205.937 280.295 205.742 280.632 205.571 280.959C205.317 281.446 204.958 281.846 204.524 282.179C204.174 282.448 203.799 282.683 203.406 282.879C203.314 282.925 203.193 282.986 203.09 282.981C203.095 282.455 203.202 281.75 203.381 281.242C203.562 280.729 203.821 280.236 204.1 279.765C204.359 279.332 204.65 278.92 204.971 278.533C205.217 278.233 205.469 277.93 205.742 277.653C205.961 277.43 206.194 277.222 206.428 277.016C206.775 276.711 207.366 276.277 207.295 275.748C207.264 275.519 207.072 275.366 206.887 275.269C206.506 275.071 205.929 275.007 205.493 275.158C204.572 275.396 203.401 276.349 203.401 276.349L203.412 276.22C203.622 275.483 203.162 275.223 203.162 275.223C202.152 274.552 199.394 276.415 199.394 276.415L198.891 277.389C198.891 277.389 201.042 276.003 201.619 275.873C201.614 275.874 201.571 276.038 201.568 276.048C201.515 276.2 201.456 276.349 201.395 276.498C201.23 276.9 201.032 277.293 200.775 277.648C200.498 278.03 200.199 278.397 199.911 278.77C199.449 279.37 198.989 279.969 198.605 280.623C198.496 280.807 198.394 280.995 198.297 281.187C198.159 281.464 198.036 281.749 197.949 282.044C197.89 282.247 197.844 282.483 197.868 282.69C197.886 282.841 198.055 283.022 198.145 283.124C198.261 283.258 198.401 283.367 198.558 283.444C198.714 283.521 198.884 283.565 199.057 283.573C199.347 283.589 199.435 283.344 199.476 283.095C199.525 282.794 199.587 282.494 199.701 282.205C199.823 281.899 199.981 281.604 200.134 281.313C200.362 280.877 200.609 280.452 200.874 280.039C201.195 279.539 201.544 279.059 201.919 278.602C202.34 278.089 202.797 277.609 203.288 277.167C203.819 276.691 204.393 276.267 205.001 275.902C205.077 275.857 205.153 275.808 205.23 275.765C205.23 275.765 201.205 280.183 201.356 282.565C201.356 282.565 201.718 283.695 203.097 283.499C203.222 283.481 203.351 283.449 203.476 283.42C204.084 283.28 204.695 283.007 205.252 282.697C205.767 282.41 206.208 281.997 206.601 281.549C206.716 281.418 206.828 281.282 206.938 281.146C207.186 280.836 207.414 280.509 207.622 280.169C207.808 279.869 208.002 279.575 208 279.219ZM177.175 273.888L177.168 273.715C177.165 273.662 177.171 273.585 177.181 273.492C177.185 273.398 177.206 273.294 177.23 273.175C177.305 272.856 177.436 272.555 177.616 272.286C177.836 271.941 178.201 271.582 178.643 271.292C178.868 271.149 179.103 271.023 179.346 270.914C179.593 270.807 179.844 270.715 180.101 270.638C180.613 270.486 181.138 270.388 181.661 270.326C181.922 270.294 182.184 270.271 182.445 270.257C182.706 270.24 182.966 270.231 183.227 270.23C183.748 270.22 184.261 270.241 184.767 270.262C185.271 270.292 185.769 270.324 186.251 270.367C186.493 270.385 186.73 270.408 186.964 270.43L187.653 270.492C188.552 270.572 189.378 270.636 190.083 270.628C190.404 270.627 190.725 270.606 191.043 270.565C191.293 270.533 191.54 270.479 191.781 270.406C191.885 270.376 191.973 270.338 192.056 270.311C192.134 270.277 192.204 270.248 192.258 270.222L192.428 270.137L192.443 270.129C192.535 270.083 192.633 270.107 192.663 270.183C192.682 270.232 192.668 270.291 192.631 270.339C192.631 270.339 192.586 270.398 192.491 270.507C192.392 270.611 192.242 270.771 192.017 270.936C191.748 271.135 191.46 271.304 191.157 271.44C190.812 271.599 190.416 271.737 189.99 271.849C189.544 271.964 189.092 272.05 188.636 272.106C188.153 272.166 187.668 272.205 187.182 272.222C186.934 272.233 186.685 272.235 186.435 272.236C186.185 272.238 185.934 272.237 185.684 272.229C185.183 272.221 184.684 272.194 184.188 272.173L182.733 272.097C182.497 272.087 182.263 272.077 182.032 272.068C181.803 272.06 181.577 272.059 181.357 272.055C180.918 272.055 180.5 272.069 180.118 272.114C179.734 272.155 179.391 272.229 179.097 272.333C178.806 272.44 178.557 272.577 178.355 272.747C178.149 272.915 177.988 273.11 177.863 273.283C177.741 273.465 177.653 273.597 177.595 273.715L177.505 273.888C177.459 273.975 177.353 274.026 177.267 274.004C177.242 273.998 177.219 273.983 177.202 273.962C177.185 273.941 177.176 273.915 177.175 273.888Z" fill="white"/>
<path d="M185.781 271.541C185.873 271.437 185.962 271.331 186.046 271.22C186.138 271.1 185.823 271.031 185.823 271.031C185.86 270.977 185.881 270.913 185.883 270.847C185.883 270.702 185.768 270.614 185.623 270.648C185.345 270.713 184.83 271.511 184.572 271.68C182.124 273.276 180.495 275.483 179.183 278.014C178.777 278.798 178.39 279.588 177.958 280.362C177.823 280.59 177.694 280.819 177.555 281.03C177.283 281.46 177 281.855 176.699 282.197C176.555 282.376 176.398 282.529 176.249 282.687C176.173 282.763 176.092 282.829 176.017 282.902C175.94 282.972 175.867 283.047 175.788 283.106C175.503 283.343 175.204 283.56 174.891 283.755C174.748 283.839 174.616 283.928 174.488 283.995C174.359 284.063 174.24 284.126 174.133 284.182C173.917 284.299 173.74 284.366 173.621 284.425L173.436 284.513L173.415 284.523C173.32 284.569 173.242 284.666 173.225 284.772C173.204 284.911 173.294 285.012 173.427 284.999L173.623 284.979C173.753 284.959 174.304 284.949 174.55 284.898L174.96 284.806C175.111 284.773 175.274 284.71 175.449 284.656C175.626 284.605 175.811 284.517 176.009 284.433C176.209 284.356 176.412 284.236 176.627 284.121C176.737 284.066 176.841 283.994 176.951 283.924C177.059 283.854 177.172 283.783 177.282 283.703C177.497 283.537 177.731 283.372 177.945 283.173C178.169 282.982 178.376 282.767 178.595 282.549C178.798 282.324 179.01 282.091 179.201 281.846C180.471 280.219 181.263 278.368 182.19 276.59C183.157 274.737 184.369 273.127 185.781 271.541Z" fill="white"/>
<path d="M177.011 277.017L177.082 276.946L177.168 276.864C177.204 276.83 177.263 276.79 177.323 276.748L177.422 276.68C177.455 276.66 177.489 276.64 177.525 276.619C177.602 276.571 177.682 276.528 177.763 276.491C177.85 276.448 177.942 276.409 178.039 276.374C178.138 276.334 178.238 276.304 178.344 276.273C178.564 276.21 178.788 276.163 179.014 276.133C179.244 276.101 179.48 276.082 179.717 276.074C179.953 276.066 180.189 276.067 180.424 276.076C180.659 276.082 180.889 276.099 181.115 276.111C181.336 276.125 181.556 276.139 181.774 276.153C181.986 276.162 182.191 276.174 182.385 276.175C182.579 276.175 182.765 276.173 182.936 276.156C183.109 276.146 183.267 276.117 183.418 276.091L183.632 276.039L183.827 275.978C183.889 275.955 183.946 275.931 184.003 275.913L184.154 275.846C184.248 275.805 184.32 275.762 184.372 275.736L184.453 275.696L184.493 275.676C184.63 275.608 184.773 275.647 184.813 275.763C184.837 275.832 184.819 275.912 184.774 275.98L184.714 276.069C184.671 276.123 184.62 276.216 184.525 276.313C184.48 276.363 184.429 276.42 184.371 276.48C184.311 276.538 184.243 276.597 184.169 276.663C184.094 276.725 184.008 276.784 183.918 276.851C183.827 276.912 183.727 276.969 183.622 277.032C183.412 277.141 183.175 277.249 182.928 277.325C182.679 277.406 182.424 277.461 182.165 277.501C181.907 277.539 181.651 277.559 181.398 277.564C181.146 277.571 180.898 277.561 180.658 277.547C180.426 277.531 180.195 277.51 179.964 277.483C179.74 277.457 179.527 277.429 179.324 277.402C178.92 277.35 178.557 277.303 178.252 277.293C178.176 277.289 178.102 277.288 178.033 277.289C177.962 277.287 177.898 277.292 177.836 277.295C177.772 277.296 177.715 277.306 177.66 277.311L177.58 277.318L177.517 277.328C177.474 277.336 177.44 277.336 177.398 277.347L177.288 277.381C177.258 277.389 177.227 277.398 177.196 277.407C177.05 277.448 176.925 277.374 176.916 277.241C176.912 277.162 176.95 277.079 177.011 277.017Z" fill="white"/>
<path d="M121.342 276.64H120.292V277.37C120.292 277.8 120.062 278.13 119.542 278.13H119.292V279.16H120.192V281.61C120.192 282.52 120.752 283.06 121.652 283.06C122.072 283.06 122.292 282.98 122.362 282.95V281.99C122.312 282 122.122 282.03 121.962 282.03C121.532 282.03 121.342 281.85 121.342 281.42V279.16H122.352V278.13H121.342V276.64ZM124.567 280.14C124.587 279.52 124.937 279.04 125.577 279.04C126.307 279.04 126.577 279.52 126.577 280.12V283H127.737V279.92C127.737 278.85 127.157 277.99 125.957 277.99C125.447 277.99 124.897 278.17 124.567 278.6V275.76H123.407V283H124.567V280.14ZM129.959 280.03C129.999 279.51 130.419 278.95 131.149 278.95C131.949 278.95 132.329 279.46 132.349 280.03H129.959ZM132.479 281.3C132.319 281.78 131.959 282.15 131.259 282.15C130.539 282.15 129.959 281.62 129.929 280.88H133.489C133.499 280.86 133.519 280.7 133.519 280.51C133.519 278.97 132.639 277.98 131.139 277.98C129.909 277.98 128.769 279 128.769 280.54C128.769 282.19 129.939 283.15 131.259 283.15C132.429 283.15 133.199 282.46 133.459 281.61L132.479 281.3Z" fill="#DAFFED"/>
<path d="M213.194 283V282.35C213.474 282.82 214.004 283.12 214.694 283.12C216.114 283.12 216.984 282.01 216.984 280.54C216.984 279.11 216.194 278 214.734 278C213.984 278 213.424 278.35 213.204 278.73V275.76H212.064V283H213.194ZM215.814 280.55C215.814 281.51 215.264 282.09 214.504 282.09C213.764 282.09 213.194 281.51 213.194 280.55C213.194 279.58 213.764 279.03 214.504 279.03C215.274 279.03 215.814 279.58 215.814 280.55ZM219.26 283V275.76H218.1V283H219.26ZM222.896 282.11C222.186 282.11 221.536 281.57 221.536 280.56C221.536 279.55 222.186 279.03 222.896 279.03C223.616 279.03 224.256 279.55 224.256 280.56C224.256 281.58 223.616 282.11 222.896 282.11ZM222.896 277.98C221.446 277.98 220.376 279.07 220.376 280.56C220.376 282.06 221.446 283.15 222.896 283.15C224.356 283.15 225.426 282.06 225.426 280.56C225.426 279.07 224.356 277.98 222.896 277.98ZM226.197 283.27C226.327 284.25 227.227 285.05 228.517 285.05C230.347 285.05 231.017 283.84 231.017 282.54V278.13H229.897V278.75C229.687 278.35 229.217 278.04 228.457 278.04C227.117 278.04 226.207 279.11 226.207 280.41C226.207 281.78 227.157 282.78 228.457 282.78C229.167 282.78 229.657 282.45 229.867 282.07V282.58C229.867 283.57 229.407 284.04 228.487 284.04C227.817 284.04 227.347 283.59 227.267 282.99L226.197 283.27ZM228.647 281.79C227.887 281.79 227.377 281.26 227.377 280.41C227.377 279.58 227.907 279.04 228.647 279.04C229.367 279.04 229.897 279.58 229.897 280.41C229.897 281.25 229.387 281.79 228.647 281.79Z" fill="#DAFFED"/>
</svg>
